<svg xmlns="http://www.w3.org/2000/svg" version="1.1" xmlns:xlink="http://www.w3.org/1999/xlink" xmlns:svgjs="http://svgjs.dev/svgjs" width="100%" height="100%" viewBox="0 0 1000 600"><rect width="1000" height="600" x="0" y="0" fill="#f8f4f9"/><g><rect width="333.3333333333333" height="333.3333333333333" rx="13.333333333333334" ry="13.333333333333334" y="299.3039789387509" fill="#912f56" transform="matrix(0.4511304363915998,0,0,0.4511304363915998,0,89.78646845187625)" x="277.08172607421875"/><path d="M434.74255840104587 491.4740480747512L434.74255840104587 511.6918421372103Q434.74255840104587 519.674172414919 430.7359833581805 526.33125094768Q426.72940831531514 532.9883294804408 420.07232978255416 536.9640847152842Q413.41525124979324 540.9706597581496 405.4329209720845 540.9706597581496L405.4329209720845 540.9706597581496L362.83994628562334 540.9706597581496Q354.8576160079146 540.9706597581496 348.0772582430655 536.9640847152842Q341.2969004782164 532.9883294804408 337.32114524337305 526.33125094768Q333.3145702005077 519.674172414919 333.3145702005077 511.6918421372103L333.3145702005077 511.6918421372103L333.3145702005077 505.0347636044494Q333.3145702005077 500.81244990542973 336.30409157864574 497.8229285272917Q339.32443276480575 494.8025873411316 343.5159266558034 494.8025873411316L343.5159266558034 494.8025873411316L349.74152787625576 494.8025873411316Q353.74810291912115 494.8025873411316 356.7376242972591 497.8229285272917Q359.72714567539714 500.81244990542973 359.72714567539714 505.0347636044494L359.72714567539714 505.0347636044494L359.72714567539714 511.6918421372103Q359.72714567539714 512.8013552260038 360.71337953210246 513.7875890827091Q361.73043319682984 514.7738229394145 362.83994628562334 514.7738229394145L362.83994628562334 514.7738229394145L405.4329209720845 514.7738229394145Q406.542434060878 514.7738229394145 407.4362084935172 513.7875890827091Q408.3299829261564 512.8013552260038 408.3299829261564 511.6918421372103L408.3299829261564 511.6918421372103L408.3299829261564 491.4740480747512Q408.3299829261564 489.0392832410099 406.11095674856944 488.392067272547L406.11095674856944 488.392067272547L352.8543284864819 468.4208316742642Q343.97822377613403 465.308031064038 338.6463969883209 457.5414394424836Q333.3145702005077 449.77484782092915 333.3145702005077 440.43644599025066L333.3145702005077 440.43644599025066L333.3145702005077 420.46521039196784Q333.3145702005077 412.2671414581048 337.32114524337305 405.61006292534387Q341.2969004782164 398.95298439258295 348.0772582430655 394.94640934971756Q354.8576160079146 390.9706541148742 362.83994628562334 390.9706541148742L362.83994628562334 390.9706541148742L405.4329209720845 390.9706541148742Q413.41525124979324 390.9706541148742 420.07232978255416 394.94640934971756Q426.72940831531514 398.95298439258295 430.7359833581805 405.61006292534387Q434.74255840104587 412.2671414581048 434.74255840104587 420.46521039196784L434.74255840104587 420.46521039196784L434.74255840104587 426.4750729562659Q434.74255840104587 430.6973866552856 431.72221721488586 433.5636288013354Q428.7326958367478 436.4606907554073 424.51038213772813 436.4606907554073L424.51038213772813 436.4606907554073L418.5313393814521 436.4606907554073Q414.30902568243243 436.4606907554073 411.31950430429447 433.5636288013354Q408.3299829261564 430.6973866552856 408.3299829261564 426.4750729562659L408.3299829261564 426.4750729562659L408.3299829261564 420.46521039196784Q408.3299829261564 417.3832295897637 405.4329209720845 417.3832295897637L405.4329209720845 417.3832295897637L362.83994628562334 417.3832295897637Q361.73043319682984 417.3832295897637 360.71337953210246 418.24618421438083Q359.72714567539714 419.1399586470201 359.72714567539714 420.46521039196784L359.72714567539714 420.46521039196784L359.72714567539714 440.43644599025066Q359.72714567539714 443.11776928816823 361.94617185298415 443.7649852566311L361.94617185298415 443.7649852566311L415.41853877122594 463.73622085491394Q424.07890482541956 466.8490214651401 429.4107316132327 474.61561308669457Q434.74255840104587 482.382204708249 434.74255840104587 491.4740480747512L434.74255840104587 491.4740480747512ZM535.0302137047686 483.06024048473387L553.213900437773 526.9784669161429Q555.43292661536 532.0945550478017 552.5666844693101 536.3168687468213L552.5666844693101 536.3168687468213Q549.2381452029297 540.9706597581496 544.1220570712708 540.9706597581496L544.1220570712708 540.9706597581496L537.4649785385097 540.9706597581496Q534.59873639246 540.9706597581496 531.8249536704762 539.1831108928712Q529.0511709484924 537.4263818356148 527.941657859699 534.7450585376972L527.941657859699 534.7450585376972L507.07664782877697 484.81696954199026Q505.9671347399835 482.1664660520947 503.07007278591163 482.1664660520947L503.07007278591163 482.1664660520947L482.45162121916593 482.1664660520947Q479.55455926509404 482.1664660520947 479.55455926509404 485.06352800616656L479.55455926509404 485.06352800616656L479.55455926509404 530.7693033028539Q479.55455926509404 534.9916170018736 476.565037886956 537.9811383800115Q473.57551650881805 540.9706597581496 469.3532028097984 540.9706597581496L469.3532028097984 540.9706597581496L463.127601589346 540.9706597581496Q458.90528789032635 540.9706597581496 456.1315051683426 537.9811383800115Q453.3577224463589 534.9916170018736 453.3577224463589 530.7693033028539L453.3577224463589 530.7693033028539L453.3577224463589 401.17201057016996Q453.3577224463589 396.73395821499594 456.1315051683426 393.83689626092405Q458.90528789032635 390.9706541148742 463.127601589346 390.9706541148742L463.127601589346 390.9706541148742L523.2570470403487 390.9706541148742Q531.2701971260794 390.9706541148742 537.9272756588405 394.94640934971756Q544.5843541916013 398.95298439258295 548.5601094264448 405.61006292534387Q552.5666844693101 412.2671414581048 552.5666844693101 420.46521039196784L552.5666844693101 420.46521039196784L552.5666844693101 452.88764843115536Q552.5666844693101 461.5171946773269 548.0053528820479 468.51329109833034Q543.4748411028079 475.5093875193337 536.139726793562 479.2694040980228L536.139726793562 479.2694040980228Q535.2459523609227 479.5159625621991 534.8144750486142 480.71793507505873Q534.3521779282837 481.95072739594036 535.0302137047686 483.06024048473387L535.0302137047686 483.06024048473387ZM526.1541089944205 452.88764843115536L526.1541089944205 452.88764843115536L526.1541089944205 420.46521039196784Q526.1541089944205 417.3832295897637 523.2570470403487 417.3832295897637L523.2570470403487 417.3832295897637L482.45162121916593 417.3832295897637Q479.55455926509404 417.3832295897637 479.55455926509404 420.24947173581353L479.55455926509404 420.24947173581353L479.55455926509404 452.88764843115536Q479.55455926509404 455.7538905772052 482.45162121916593 455.7538905772052L482.45162121916593 455.7538905772052L523.2570470403487 455.7538905772052Q526.1541089944205 455.7538905772052 526.1541089944205 452.88764843115536Z " fill="#f8f4f9" transform="matrix(0.4511304363915998,0,0,0.4511304363915998,0,89.78646845187625)"/><path d="M789.0070024653717 405.61006292534387L789.0070024653717 405.61006292534387L719.5391551836904 535.6388329703365Q716.6729130376406 540.9706597581496 710.6630504733425 540.9706597581496L710.6630504733425 540.9706597581496L703.7902332844272 540.9706597581496Q698.0269291843056 540.9706597581496 695.1298672302337 536.1011300906671L695.1298672302337 536.1011300906671Q692.479363740338 531.2007806151626 694.9141285740793 525.8689538273493L694.9141285740793 525.8689538273493L764.3819758557606 396.3024809026874Q767.2482180018104 390.9706541148742 773.2580805661084 390.9706541148742L773.2580805661084 390.9706541148742L780.1308977550237 390.9706541148742Q785.8942018551454 390.9706541148742 788.7912638092174 395.84018378235675L788.7912638092174 395.84018378235675Q791.6575059552672 400.493974793685 789.0070024653717 405.61006292534387ZM903.0711119549468 405.61006292534387L903.0711119549468 405.61006292534387L833.6032646732656 535.6388329703365Q830.7062027191937 540.9706597581496 824.7271599629175 540.9706597581496L824.7271599629175 540.9706597581496L817.8543427740024 540.9706597581496Q812.0910386738806 540.9706597581496 809.1939767198088 536.1011300906671L809.1939767198088 536.1011300906671Q806.5434732299132 531.2007806151626 808.9782380636544 525.8689538273493L808.9782380636544 525.8689538273493L878.4152655373136 396.3024809026874Q881.3123274913855 390.9706541148742 887.2913702476616 390.9706541148742L887.2913702476616 390.9706541148742L894.1950072445989 390.9706541148742Q899.9583113447206 390.9706541148742 902.8245534907704 395.84018378235675L902.8245534907704 395.84018378235675Q905.7216154448423 400.493974793685 903.0711119549468 405.61006292534387ZM1071.9328401077114 420.46521039196784L1071.9328401077114 452.88764843115536Q1071.9328401077114 460.8699787088641 1068.0495442969343 467.527057241625Q1064.166248486157 474.18413577438594 1057.5091699533962 478.1598910092293Q1050.8520914206351 482.1664660520947 1042.6232026787502 482.1664660520947L1042.6232026787502 482.1664660520947L1001.8177768575674 482.1664660520947Q999.1364535596498 482.1664660520947 999.1364535596498 485.06352800616656L999.1364535596498 485.06352800616656L999.1364535596498 530.7693033028539Q999.1364535596498 534.9916170018736 996.1469321815117 537.9811383800115Q993.1574108033738 540.9706597581496 988.9350971043541 540.9706597581496L988.9350971043541 540.9706597581496L982.956054348078 540.9706597581496Q978.7337406490583 540.9706597581496 975.7442192709203 537.9811383800115Q972.7238780847604 534.9916170018736 972.7238780847604 530.7693033028539L972.7238780847604 530.7693033028539L972.7238780847604 401.17201057016996Q972.7238780847604 396.73395821499594 975.7442192709203 393.83689626092405Q978.7337406490583 390.9706541148742 982.956054348078 390.9706541148742L982.956054348078 390.9706541148742L1042.6232026787502 390.9706541148742Q1050.8520914206351 390.9706541148742 1057.5091699533962 394.94640934971756Q1064.166248486157 398.95298439258295 1068.0495442969343 405.61006292534387Q1071.9328401077114 412.2671414581048 1071.9328401077114 420.46521039196784L1071.9328401077114 420.46521039196784ZM1045.7360032889762 452.88764843115536L1045.7360032889762 452.88764843115536L1045.7360032889762 420.46521039196784Q1045.7360032889762 417.3832295897637 1042.6232026787502 417.3832295897637L1042.6232026787502 417.3832295897637L1001.8177768575674 417.3832295897637Q999.1364535596498 417.3832295897637 999.1364535596498 420.24947173581353L999.1364535596498 420.24947173581353L999.1364535596498 452.88764843115536Q999.1364535596498 455.7538905772052 1001.8177768575674 455.7538905772052L1001.8177768575674 455.7538905772052L1042.6232026787502 455.7538905772052Q1045.7360032889762 455.7538905772052 1045.7360032889762 452.88764843115536ZM1191.297956577078 420.46521039196784L1191.297956577078 511.6918421372103Q1191.297956577078 519.674172414919 1187.3222013422344 526.33125094768Q1183.315626299369 532.9883294804408 1176.658547766608 536.9640847152842Q1170.001469233847 540.9706597581496 1162.0191389561385 540.9706597581496L1162.0191389561385 540.9706597581496L1119.4261642696772 540.9706597581496Q1111.4130141839464 540.9706597581496 1104.6634762271194 536.9640847152842Q1097.8831184622704 532.9883294804408 1093.907363227427 526.33125094768Q1089.9007881845616 519.674172414919 1089.9007881845616 511.6918421372103L1089.9007881845616 511.6918421372103L1089.9007881845616 420.46521039196784Q1089.9007881845616 412.2671414581048 1093.907363227427 405.61006292534387Q1097.8831184622704 398.95298439258295 1104.6634762271194 394.94640934971756Q1111.4130141839464 390.9706541148742 1119.4261642696772 390.9706541148742L1119.4261642696772 390.9706541148742L1162.0191389561385 390.9706541148742Q1170.001469233847 390.9706541148742 1176.658547766608 394.94640934971756Q1183.315626299369 398.95298439258295 1187.3222013422344 405.61006292534387Q1191.297956577078 412.2671414581048 1191.297956577078 420.46521039196784L1191.297956577078 420.46521039196784ZM1164.9162009102104 511.6918421372103L1164.9162009102104 511.6918421372103L1164.9162009102104 420.46521039196784Q1164.9162009102104 417.3832295897637 1162.0191389561385 417.3832295897637L1162.0191389561385 417.3832295897637L1119.4261642696772 417.3832295897637Q1118.3166511808838 417.3832295897637 1117.2995975161564 418.24618421438083Q1116.3133636594512 419.1399586470201 1116.3133636594512 420.46521039196784L1116.3133636594512 420.46521039196784L1116.3133636594512 511.6918421372103Q1116.3133636594512 512.8013552260038 1117.2995975161564 513.7875890827091Q1118.3166511808838 514.7738229394145 1119.4261642696772 514.7738229394145L1119.4261642696772 514.7738229394145L1162.0191389561385 514.7738229394145Q1163.1286520449319 514.7738229394145 1164.0224264775711 513.7875890827091Q1164.9162009102104 512.8013552260038 1164.9162009102104 511.6918421372103ZM1291.6164316888223 483.06024048473387L1309.800118421827 526.9784669161429Q1312.0191445994137 532.0945550478017 1309.1529024533638 536.3168687468213L1309.1529024533638 536.3168687468213Q1305.8243631869836 540.9706597581496 1300.7082750553245 540.9706597581496L1300.7082750553245 540.9706597581496L1294.0511965225637 540.9706597581496Q1291.1541345684918 540.9706597581496 1288.3803518465081 539.1831108928712Q1285.6065691245244 537.4263818356148 1284.4970560357308 534.7450585376972L1284.4970560357308 534.7450585376972L1263.662865812831 484.81696954199026Q1262.5533527240373 482.1664660520947 1259.6562907699654 482.1664660520947L1259.6562907699654 482.1664660520947L1239.0070193951979 482.1664660520947Q1236.140777249148 482.1664660520947 1236.140777249148 485.06352800616656L1236.140777249148 485.06352800616656L1236.140777249148 530.7693033028539Q1236.140777249148 534.9916170018736 1233.1512558710099 537.9811383800115Q1230.1309146848498 540.9706597581496 1225.9394207938522 540.9706597581496L1225.9394207938522 540.9706597581496L1219.7138195734 540.9706597581496Q1215.4915058743802 540.9706597581496 1212.7177231523965 537.9811383800115Q1209.9439404304128 534.9916170018736 1209.9439404304128 530.7693033028539L1209.9439404304128 530.7693033028539L1209.9439404304128 401.17201057016996Q1209.9439404304128 396.73395821499594 1212.7177231523965 393.83689626092405Q1215.4915058743802 390.9706541148742 1219.7138195734 390.9706541148742L1219.7138195734 390.9706541148742L1279.8432650244026 390.9706541148742Q1287.8255953021112 390.9706541148742 1294.4826738348722 394.94640934971756Q1301.1397523676333 398.95298439258295 1305.1463274104985 405.61006292534387Q1309.1529024533638 412.2671414581048 1309.1529024533638 420.46521039196784L1309.1529024533638 420.46521039196784L1309.1529024533638 452.88764843115536Q1309.1529024533638 461.5171946773269 1304.5915708661018 468.51329109833034Q1300.0302392788399 475.5093875193337 1292.725944777616 479.2694040980228L1292.725944777616 479.2694040980228Q1291.8321703449767 479.5159625621991 1291.4006930326682 480.71793507505873Q1290.9383959123375 481.95072739594036 1291.6164316888223 483.06024048473387L1291.6164316888223 483.06024048473387ZM1282.7403269784745 452.88764843115536L1282.7403269784745 452.88764843115536L1282.7403269784745 420.46521039196784Q1282.7403269784745 417.3832295897637 1279.8432650244026 417.3832295897637L1279.8432650244026 417.3832295897637L1239.0070193951979 417.3832295897637Q1236.140777249148 417.3832295897637 1236.140777249148 420.24947173581353L1236.140777249148 420.24947173581353L1236.140777249148 452.88764843115536Q1236.140777249148 455.7538905772052 1239.0070193951979 455.7538905772052L1239.0070193951979 455.7538905772052L1279.8432650244026 455.7538905772052Q1282.7403269784745 455.7538905772052 1282.7403269784745 452.88764843115536ZM1427.8708029542672 401.17201057016996L1427.8708029542672 407.15105332644595Q1427.8708029542672 411.37336702546565 1424.9737410001953 414.3628884036036Q1422.0766790461234 417.3832295897637 1417.6386266909496 417.3832295897637L1417.6386266909496 417.3832295897637L1394.3388518262864 417.3832295897637Q1391.4726096802365 417.3832295897637 1391.4726096802365 420.24947173581353L1391.4726096802365 420.24947173581353L1391.4726096802365 530.7693033028539Q1391.4726096802365 534.9916170018736 1388.4830883020986 537.9811383800115Q1385.4627471159383 540.9706597581496 1381.2712532249407 540.9706597581496L1381.2712532249407 540.9706597581496L1375.477129316797 540.9706597581496Q1371.2856354257992 540.9706597581496 1368.2652942396394 537.9811383800115Q1365.2757728615013 534.9916170018736 1365.2757728615013 530.7693033028539L1365.2757728615013 530.7693033028539L1365.2757728615013 420.24947173581353Q1365.2757728615013 417.3832295897637 1362.4095307154514 417.3832295897637L1362.4095307154514 417.3832295897637L1338.8631973866118 417.3832295897637Q1334.671703495614 417.3832295897637 1331.6513623094543 414.3628884036036Q1328.661840931316 411.37336702546565 1328.661840931316 407.15105332644595L1328.661840931316 407.15105332644595L1328.661840931316 401.17201057016996Q1328.661840931316 396.73395821499594 1331.6513623094543 393.83689626092405Q1334.671703495614 390.9706541148742 1338.8631973866118 390.9706541148742L1338.8631973866118 390.9706541148742L1417.6386266909496 390.9706541148742Q1422.0766790461234 390.9706541148742 1424.9737410001953 393.83689626092405Q1427.8708029542672 396.73395821499594 1427.8708029542672 401.17201057016996L1427.8708029542672 401.17201057016996ZM1541.9040926358205 401.17201057016996L1541.9040926358205 407.15105332644595Q1541.9040926358205 411.37336702546565 1538.9145712576824 414.3628884036036Q1535.9250498795445 417.3832295897637 1531.918474836679 417.3832295897637L1531.918474836679 417.3832295897637L1474.6860913397481 417.3832295897637Q1472.0047680418306 417.3832295897637 1472.0047680418306 420.24947173581353L1472.0047680418306 420.24947173581353L1472.0047680418306 449.77484782092915Q1472.0047680418306 452.88764843115536 1474.6860913397481 452.88764843115536L1474.6860913397481 452.88764843115536L1523.9361445589705 452.88764843115536Q1528.3741969141442 452.88764843115536 1531.2712588682161 455.7538905772052Q1534.137501014266 458.6509525312771 1534.137501014266 462.87326623029674L1534.137501014266 462.87326623029674L1534.137501014266 469.0680476427271Q1534.137501014266 473.29036134174675 1531.2712588682161 476.27988271988477Q1528.3741969141442 479.2694040980228 1523.9361445589705 479.2694040980228L1523.9361445589705 479.2694040980228L1474.6860913397481 479.2694040980228Q1472.0047680418306 479.2694040980228 1472.0047680418306 481.95072739594036L1472.0047680418306 481.95072739594036L1472.0047680418306 530.7693033028539Q1472.0047680418306 534.9916170018736 1469.0152466636928 537.9811383800115Q1466.0257252855545 540.9706597581496 1461.8034115865348 540.9706597581496L1461.8034115865348 540.9706597581496L1455.6086301741047 540.9706597581496Q1451.6020551312392 540.9706597581496 1448.6125337531012 537.9811383800115Q1445.623012374963 534.9916170018736 1445.623012374963 530.7693033028539L1445.623012374963 530.7693033028539L1445.623012374963 401.17201057016996Q1445.623012374963 396.73395821499594 1448.6125337531012 393.83689626092405Q1451.6020551312392 390.9706541148742 1455.6086301741047 390.9706541148742L1455.6086301741047 390.9706541148742L1531.918474836679 390.9706541148742Q1535.9250498795445 390.9706541148742 1538.9145712576824 393.83689626092405Q1541.9040926358205 396.73395821499594 1541.9040926358205 401.17201057016996L1541.9040926358205 401.17201057016996ZM1661.3000289132087 420.46521039196784L1661.3000289132087 511.6918421372103Q1661.3000289132087 519.674172414919 1657.2934538703432 526.33125094768Q1653.3176986355 532.9883294804408 1646.6606201027391 536.9640847152842Q1640.003541569978 540.9706597581496 1632.0212112922695 540.9706597581496L1632.0212112922695 540.9706597581496L1589.3974167977863 540.9706597581496Q1581.4150865200775 540.9706597581496 1574.6347287552285 536.9640847152842Q1567.8851907984013 532.9883294804408 1563.878615755536 526.33125094768Q1559.9028605206927 519.674172414919 1559.9028605206927 511.6918421372103L1559.9028605206927 511.6918421372103L1559.9028605206927 420.46521039196784Q1559.9028605206927 412.2671414581048 1563.878615755536 405.61006292534387Q1567.8851907984013 398.95298439258295 1574.6347287552285 394.94640934971756Q1581.4150865200775 390.9706541148742 1589.3974167977863 390.9706541148742L1589.3974167977863 390.9706541148742L1632.0212112922695 390.9706541148742Q1640.003541569978 390.9706541148742 1646.6606201027391 394.94640934971756Q1653.3176986355 398.95298439258295 1657.2934538703432 405.61006292534387Q1661.3000289132087 412.2671414581048 1661.3000289132087 420.46521039196784L1661.3000289132087 420.46521039196784ZM1634.8874534383192 511.6918421372103L1634.8874534383192 511.6918421372103L1634.8874534383192 420.46521039196784Q1634.8874534383192 417.3832295897637 1632.0212112922695 417.3832295897637L1632.0212112922695 417.3832295897637L1589.3974167977863 417.3832295897637Q1588.2879037089926 417.3832295897637 1587.3016698522874 418.24618421438083Q1586.28461618756 419.1399586470201 1586.28461618756 420.46521039196784L1586.28461618756 420.46521039196784L1586.28461618756 511.6918421372103Q1586.28461618756 512.8013552260038 1587.3016698522874 513.7875890827091Q1588.2879037089926 514.7738229394145 1589.3974167977863 514.7738229394145L1589.3974167977863 514.7738229394145L1632.0212112922695 514.7738229394145Q1633.130724381063 514.7738229394145 1633.99367900568 513.7875890827091Q1634.8874534383192 512.8013552260038 1634.8874534383192 511.6918421372103ZM1775.579877058938 525.0059992027323L1775.579877058938 530.7693033028539Q1775.579877058938 534.9916170018736 1772.5903556808003 537.9811383800115Q1769.600834302662 540.9706597581496 1765.5942592597967 540.9706597581496L1765.5942592597967 540.9706597581496L1689.2535947892002 540.9706597581496Q1685.277839554357 540.9706597581496 1682.2574983681968 537.9811383800115Q1679.2679769900587 534.9916170018736 1679.2679769900587 530.7693033028539L1679.2679769900587 530.7693033028539L1679.2679769900587 401.17201057016996Q1679.2679769900587 396.73395821499594 1682.2574983681968 393.83689626092405Q1685.277839554357 390.9706541148742 1689.2535947892002 390.9706541148742L1689.2535947892002 390.9706541148742L1695.4791960096527 390.9706541148742Q1699.7015097086721 390.9706541148742 1702.6910310868102 393.83689626092405Q1705.6805524649483 396.73395821499594 1705.6805524649483 401.17201057016996L1705.6805524649483 401.17201057016996L1705.6805524649483 511.9075807933646Q1705.6805524649483 514.7738229394145 1708.3310559548438 514.7738229394145L1708.3310559548438 514.7738229394145L1765.5942592597967 514.7738229394145Q1769.600834302662 514.7738229394145 1772.5903556808003 517.6708848934863Q1775.579877058938 520.5679468475582 1775.579877058938 525.0059992027323L1775.579877058938 525.0059992027323ZM1819.9604006106774 401.17201057016996L1819.9604006106774 530.7693033028539Q1819.9604006106774 534.9916170018736 1816.9708792325396 537.9811383800115Q1813.9813578544017 540.9706597581496 1809.759044155382 540.9706597581496L1809.759044155382 540.9706597581496L1803.749181591084 540.9706597581496Q1799.5576877000863 540.9706597581496 1796.5373465139264 537.9811383800115Q1793.5478251357881 534.9916170018736 1793.5478251357881 530.7693033028539L1793.5478251357881 530.7693033028539L1793.5478251357881 401.17201057016996Q1793.5478251357881 396.73395821499594 1796.5373465139264 393.83689626092405Q1799.5576877000863 390.9706541148742 1803.749181591084 390.9706541148742L1803.749181591084 390.9706541148742L1809.759044155382 390.9706541148742Q1813.9813578544017 390.9706541148742 1816.9708792325396 393.83689626092405Q1819.9604006106774 396.73395821499594 1819.9604006106774 401.17201057016996L1819.9604006106774 401.17201057016996ZM1939.5720755442203 420.46521039196784L1939.5720755442203 511.6918421372103Q1939.5720755442203 519.674172414919 1935.565500501355 526.33125094768Q1931.5897452665117 532.9883294804408 1924.9326667337505 536.9640847152842Q1918.2755882009897 540.9706597581496 1910.2624381152586 540.9706597581496L1910.2624381152586 540.9706597581496L1867.6694634287978 540.9706597581496Q1859.6871331510893 540.9706597581496 1852.90677538624 536.9640847152842Q1846.1572374294128 532.9883294804408 1842.1506623865475 526.33125094768Q1838.1440873436823 519.674172414919 1838.1440873436823 511.6918421372103L1838.1440873436823 511.6918421372103L1838.1440873436823 420.46521039196784Q1838.1440873436823 412.2671414581048 1842.1506623865475 405.61006292534387Q1846.1572374294128 398.95298439258295 1852.90677538624 394.94640934971756Q1859.6871331510893 390.9706541148742 1867.6694634287978 390.9706541148742L1867.6694634287978 390.9706541148742L1910.2624381152586 390.9706541148742Q1918.2755882009897 390.9706541148742 1924.9326667337505 394.94640934971756Q1931.5897452665117 398.95298439258295 1935.565500501355 405.61006292534387Q1939.5720755442203 412.2671414581048 1939.5720755442203 420.46521039196784L1939.5720755442203 420.46521039196784ZM1913.1595000693305 511.6918421372103L1913.1595000693305 511.6918421372103L1913.1595000693305 420.46521039196784Q1913.1595000693305 417.3832295897637 1910.2624381152586 417.3832295897637L1910.2624381152586 417.3832295897637L1867.6694634287978 417.3832295897637Q1866.559950340004 417.3832295897637 1865.573716483299 418.24618421438083Q1864.5566628185716 419.1399586470201 1864.5566628185716 420.46521039196784L1864.5566628185716 420.46521039196784L1864.5566628185716 511.6918421372103Q1864.5566628185716 512.8013552260038 1865.573716483299 513.7875890827091Q1866.559950340004 514.7738229394145 1867.6694634287978 514.7738229394145L1867.6694634287978 514.7738229394145L1910.2624381152586 514.7738229394145Q1911.3719512040525 514.7738229394145 1912.2657256366915 513.7875890827091Q1913.1595000693305 512.8013552260038 1913.1595000693305 511.6918421372103Z " fill="#912f56" transform="matrix(0.4511304363915998,0,0,0.4511304363915998,0,89.78646845187625)"/></g></svg>